# xmcd
# 
# Track frame offsets:
#     150
#     10602
#     24905
#     37671
#     55341
#     68264
#     85005
#     100086
#     112653
#     124020
#     138195
#     148588
# 
# Disc length: 2472
# 
# Revision: 3
# Processed by: cddbd v1.5.2PL0 Copyright (c) Steve Scherf et al.
# Submitted via: BonkEnc v1.0.6
# 
DISCID=7e09a60c
DTITLE=Ronny Boy James - Steve Hagard - Ricky West - Bellamy Brothers - CindyRay - Al Anderson - Sam James- Country Rools Band- Peter Hill- SamanthaBlue- Thomas Bubitt - Western Flyer - COUNTRY 100% DANCE
DYEAR=2002
DGENRE=Country - Dance
TTITLE0=SOLD - Ronny Boy James - 6767452 R.fagan/Robert W.royer
TTITLE1=LIFE IS A MISTERY - Steve Hagard 66907160 Steve Hagard
TTITLE2=PAPA LOVED MAMA - Ricky West 6767453 Williamas/ Brooks
TTITLE3=SHINE THEM BUCKES - Bellamy Brothers 66840899 David and Howard Bellamy
TTITLE4=MI VIDA LOCA (MY CRAZY LIFE) -Cindy Ray 66907110 Pam Tilis/Jess Leary
TTITLE5=GET GONE - Al Anderson 66840422 Al Anderson/ Craug Wiseman
TTITLE6=GOD BLESSED TEXAS - Sam James 66906989 P.Howell/ B. Seals
TTITLE7=LITTLE MISS HONK TONK - Country Rools Band 6767454 Durin
TTITLE8=CRIMSON E CLOVER - Peter Hill 67249370 James Tommy/ Lucia Jr.Peter
TTITLE9=HEADS CAROLINA - Samantha Blue 67002366 J.Tim Nichols/ D.Mark Sanders
TTITLE10=AGAINST THE GRAIN - Thomas Bubitt 66860644 Bouton/ Cordle/ Jackson
TTITLE11=SIXTEEN TONES - Western Flyer 66853141 Merle Travis
EXTD=
EXTT0=
EXTT1=
EXTT2=
EXTT3=
EXTT4=
EXTT5=
EXTT6=
EXTT7=
EXTT8=
EXTT9=
EXTT10=
EXTT11=
PLAYORDER=
